HIERARCHY
ROOT Hips
{
	OFFSET -0.001795 -0.223333 0.028219
	CHANNELS 6 Xposition Yposition Zposition Zrotation Yrotation Xrotation 
	JOINT LeftUpLeg
	{
		OFFSET 0.069520 -0.091406 -0.006815
		CHANNELS 3 Zrotation Yrotation Xrotation
		JOINT LeftLeg
		{
			OFFSET 0.034277 -0.375199 -0.004496
			CHANNELS 3 Zrotation Yrotation Xrotation
			JOINT LeftFoot
			{
				OFFSET -0.013596 -0.397961 -0.043693
				CHANNELS 3 Zrotation Yrotation Xrotation
				JOINT LeftToe
				{
					OFFSET 0.026358 -0.055791 0.119288
					CHANNELS 3 Zrotation Yrotation Xrotation
					End Site
					{
						OFFSET 0.000000 0.000000 0.000000
					}
				}
			}
		}
	}
	JOINT RightUpLeg
	{
		OFFSET -0.067670 -0.090522 -0.004320
		CHANNELS 3 Zrotation Yrotation Xrotation
		JOINT RightLeg
		{
			OFFSET -0.038290 -0.382569 -0.008850
			CHANNELS 3 Zrotation Yrotation Xrotation
			JOINT RightFoot
			{
				OFFSET 0.015774 -0.398415 -0.042312
				CHANNELS 3 Zrotation Yrotation Xrotation
				JOINT RightToe
				{
					OFFSET -0.025372 -0.048144 0.123348
					CHANNELS 3 Zrotation Yrotation Xrotation
					End Site
					{
						OFFSET 0.000000 0.000000 0.000000
					}
				}
			}
		}
	}
	JOINT Spine
	{
		OFFSET -0.002533 0.108963 -0.026696
		CHANNELS 3 Zrotation Yrotation Xrotation
		JOINT Spine1
		{
			OFFSET 0.005487 0.135180 0.001092
			CHANNELS 3 Zrotation Yrotation Xrotation
			JOINT Spine2
			{
				OFFSET 0.001457 0.052922 0.025425
				CHANNELS 3 Zrotation Yrotation Xrotation
				JOINT Neck
				{
					OFFSET -0.002778 0.213870 -0.042857
					CHANNELS 3 Zrotation Yrotation Xrotation
					JOINT Head
					{
						OFFSET 0.005152 0.064970 0.051349
						CHANNELS 3 Zrotation Yrotation Xrotation
						End Site
						{
							OFFSET 0.000000 0.000000 0.000000
						}
					}
				}
				JOINT LeftShoulder
				{
					OFFSET 0.078845 0.121749 -0.034090
					CHANNELS 3 Zrotation Yrotation Xrotation
					JOINT LeftArm
					{
						OFFSET 0.090977 0.030469 -0.008868
						CHANNELS 3 Zrotation Yrotation Xrotation
						JOINT LeftForeArm
						{
							OFFSET 0.259612 -0.012772 -0.027456
							CHANNELS 3 Zrotation Yrotation Xrotation
							JOINT LeftHand
							{
								OFFSET 0.249234 0.008986 -0.001171
								CHANNELS 3 Zrotation Yrotation Xrotation
								End Site
								{
									OFFSET 0.000000 0.000000 0.000000
								}
							}
						}
					}
				}
				JOINT RightShoulder
				{
					OFFSET -0.081759 0.118833 -0.038615
					CHANNELS 3 Zrotation Yrotation Xrotation
					JOINT RightArm
					{
						OFFSET -0.096012 0.032551 -0.009143
						CHANNELS 3 Zrotation Yrotation Xrotation
						JOINT RightForeArm
						{
							OFFSET -0.253742 -0.013329 -0.021401
							CHANNELS 3 Zrotation Yrotation Xrotation
							JOINT RightHand
							{
								OFFSET -0.255298 0.007772 -0.005559
								CHANNELS 3 Zrotation Yrotation Xrotation
								End Site
								{
									OFFSET 0.000000 0.000000 0.000000
								}
							}
						}
					}
				}
			}
		}
	}
}
MOTION
Frames: 17
Frame Time: 0.050000
-0.040322 0.964911 -0.032038 -0.858811 9.248004 8.826032 4.646095 -0.764057 -9.999000 0.436794 0.162761 -5.874144 -5.362372 4.031970 28.179108 0.000000 0.000000 0.000000 -3.359630 0.971791 -14.010269 3.219141 -0.401055 -0.233936 -11.379403 -22.857157 27.121127 0.000000 0.000000 0.000000 0.978311 -2.201569 27.947199 7.344616 -0.841292 -25.485268 4.936560 4.371249 24.203498 -3.422293 4.805412 -36.754396 0.000000 0.000000 0.000000 3.102597 -25.525605 8.093810 30.333917 -71.579637 -29.688327 34.477246 -29.620625 -8.200609 0.000000 0.000000 0.000000 -18.809613 32.314843 5.532679 -9.605674 44.059608 -4.680101 -8.995024 -12.522020 0.913863 0.000000 0.000000 0.000000 
-0.042219 0.965023 -0.035690 -0.846849 11.213914 8.979133 5.161092 -0.822928 -10.773295 -0.148454 0.166041 -5.362785 -6.579286 2.448256 26.977358 0.000000 0.000000 0.000000 -3.500043 0.901138 -13.661558 3.295099 -0.430780 -1.054325 -11.884284 -23.125596 27.952702 0.000000 0.000000 0.000000 1.615034 -2.709801 29.292379 7.028041 -0.748610 -25.406641 5.836529 4.364226 23.560348 -4.562210 5.378545 -36.599444 0.000000 0.000000 0.000000 6.372101 -27.318774 8.227966 46.604590 -69.194627 -40.191950 29.898629 -19.435903 -4.472799 0.000000 0.000000 0.000000 -21.149097 33.369215 4.988641 -12.224076 42.177330 -4.980455 -4.235157 -14.337905 0.332218 0.000000 0.000000 0.000000 
-0.042879 0.964551 -0.038062 -0.813319 11.708978 9.207127 4.937202 -0.859226 -11.102067 0.150826 0.140773 -4.858328 -6.562905 1.694666 24.795303 0.000000 0.000000 0.000000 -3.648843 0.893073 -14.046637 3.459818 -0.454526 -1.088190 -12.263240 -23.491912 28.447950 0.000000 0.000000 0.000000 1.758923 -2.965792 30.539277 6.438550 -0.585806 -25.812932 7.102866 5.009281 23.536699 -5.202974 5.724916 -36.481780 0.000000 0.000000 0.000000 8.096801 -27.964656 8.212311 49.397112 -68.090606 -41.723653 30.047208 -17.011492 -3.928622 0.000000 0.000000 0.000000 -22.186311 34.312632 4.809033 -12.720655 40.379225 -4.702066 -2.614957 -14.707520 0.106996 0.000000 0.000000 0.000000 
-0.042769 0.963609 -0.040183 -0.514796 11.941331 9.640872 4.427424 -0.930644 -11.786633 0.137831 0.114562 -3.887964 -5.872385 1.684303 22.430778 0.000000 0.000000 0.000000 -4.050884 0.864884 -14.600647 3.650188 -0.480474 -1.266538 -12.975859 -24.312899 29.048381 0.000000 0.000000 0.000000 1.784843 -3.044012 30.877600 6.186745 -0.552784 -25.351389 7.830250 5.481718 23.440921 -6.020388 6.134197 -35.915274 0.000000 0.000000 0.000000 8.597646 -28.945226 8.418048 48.256463 -66.923931 -40.100514 30.948978 -16.656529 -4.002476 0.000000 0.000000 0.000000 -22.635402 35.008962 4.795735 -12.463592 39.202595 -4.383230 -3.014084 -14.826813 0.175208 0.000000 0.000000 0.000000 
-0.042140 0.962928 -0.042454 -0.312086 11.836797 10.075438 4.369226 -0.960749 -12.136868 -0.071109 0.124323 -3.867252 -6.062606 1.023911 21.596213 0.000000 0.000000 0.000000 -4.492890 0.841530 -15.308938 3.723749 -0.486574 -0.821967 -12.490690 -23.760109 28.435835 0.000000 0.000000 0.000000 2.348681 -3.350662 31.758545 5.740968 -0.444418 -25.508096 8.231007 6.298142 23.466156 -5.683634 6.099077 -34.936742 0.000000 0.000000 0.000000 7.944122 -29.409261 8.654108 45.139080 -67.015737 -38.140604 33.290920 -19.042290 -5.013246 0.000000 0.000000 0.000000 -22.530455 35.126069 4.865577 -12.039010 38.613419 -4.118698 -4.149399 -14.597357 0.352775 0.000000 0.000000 0.000000 
-0.041430 0.962196 -0.044766 0.121971 12.029452 10.705293 3.660988 -1.064794 -12.992544 0.019993 0.107215 -3.422051 -5.617983 1.330883 20.773754 0.000000 0.000000 0.000000 -5.104713 0.783890 -16.009499 3.648827 -0.476397 -0.255004 -11.857853 -23.041705 27.039976 0.000000 0.000000 0.000000 2.481672 -3.440964 31.877083 6.144338 -0.551752 -25.113882 8.122437 6.751350 23.550825 -5.820472 6.245836 -33.921102 0.000000 0.000000 0.000000 6.917721 -29.506635 8.835193 42.316084 -66.932147 -36.210643 35.872695 -20.727930 -5.983917 0.000000 0.000000 0.000000 -23.033243 34.859132 4.645547 -12.021483 38.245144 -3.977472 -5.678058 -14.162890 0.575290 0.000000 0.000000 0.000000 
-0.041015 0.961837 -0.046585 0.400870 11.811995 10.941116 3.593828 -1.073710 -13.071158 -0.534713 0.142421 -3.694008 -5.396918 1.568112 20.700530 0.000000 0.000000 0.000000 -5.570379 0.739675 -16.419216 3.682079 -0.478316 0.221029 -11.214616 -22.290839 26.085218 0.000000 0.000000 0.000000 2.743587 -3.590519 32.419866 5.963107 -0.533018 -24.694722 7.953716 6.933768 23.364105 -5.093915 5.974848 -32.148693 0.000000 0.000000 0.000000 5.953457 -29.541918 8.974028 40.732531 -66.401287 -34.611545 36.689051 -22.131734 -6.580263 0.000000 0.000000 0.000000 -23.181928 34.810396 4.618674 -12.228346 37.518711 -3.930769 -6.564369 -12.963031 0.652101 0.000000 0.000000 0.000000 
-0.041092 0.961047 -0.047924 0.715398 12.094675 10.924537 3.388181 -1.089942 -13.103916 -0.604266 0.141056 -3.519774 -5.831209 0.774759 20.219051 0.000000 0.000000 0.000000 -5.989046 0.675094 -16.539562 3.781433 -0.495049 0.642804 -11.281976 -22.388912 25.649466 0.000000 0.000000 0.000000 3.013790 -3.762533 32.747292 6.104532 -0.582541 -24.308521 7.696791 6.711476 23.558226 -4.879896 5.892445 -31.060672 0.000000 0.000000 0.000000 5.157824 -29.409165 9.036827 40.439481 -66.217110 -34.205476 37.935095 -22.326833 -6.901450 0.000000 0.000000 0.000000 -23.449870 34.859934 4.520964 -11.921547 36.774764 -3.763861 -8.174657 -11.587955 0.797178 0.000000 0.000000 0.000000 
-0.041784 0.961188 -0.049074 0.813481 11.937526 10.661214 3.352543 -1.038009 -12.503717 -0.640526 0.152452 -3.927228 -5.931064 0.478855 19.954823 0.000000 0.000000 0.000000 -6.152886 0.649561 -16.069594 3.592374 -0.467536 0.601502 -10.231850 -21.017689 24.650850 0.000000 0.000000 0.000000 3.197040 -3.857710 33.103864 6.301796 -0.658604 -23.844413 7.266217 6.383648 23.560118 -4.438945 5.644886 -30.062081 0.000000 0.000000 0.000000 4.079016 -28.978685 9.041395 39.035856 -65.630047 -32.596784 39.116403 -22.541342 -7.247300 0.000000 0.000000 0.000000 -23.419474 34.706093 4.509563 -11.014252 36.522901 -3.577633 -10.450711 -9.147409 0.903577 0.000000 0.000000 0.000000 
-0.043122 0.961138 -0.050544 1.016965 11.461452 10.457242 3.291740 -1.015322 -12.271708 -0.673743 0.154613 -3.879188 -6.021247 0.263094 19.963318 0.000000 0.000000 0.000000 -6.333988 0.635178 -15.697665 3.591573 -0.463611 0.506401 -9.522359 -20.170244 23.423041 0.000000 0.000000 0.000000 3.163798 -3.763563 32.958852 6.297484 -0.693435 -23.429439 7.097926 6.219839 23.839750 -4.384510 5.581307 -29.303044 0.000000 0.000000 0.000000 3.774075 -28.305292 8.880419 39.009303 -66.331670 -32.982539 40.544183 -21.627564 -7.228015 0.000000 0.000000 0.000000 -22.979012 34.360113 4.582292 -8.965562 36.926493 -3.201486 -13.354645 -7.145950 1.028078 0.000000 0.000000 0.000000 
-0.044902 0.961442 -0.052451 1.265930 11.216006 10.403302 3.181150 -0.996206 -12.009919 -0.846224 0.169163 -4.149134 -5.900955 0.346427 19.857047 0.000000 0.000000 0.000000 -6.637712 0.601819 -15.629366 3.729766 -0.480602 0.402665 -9.152325 -19.683935 23.079383 0.000000 0.000000 0.000000 2.995901 -3.641534 32.746649 6.424290 -0.720912 -23.528431 7.005155 5.705625 24.226569 -4.233653 5.438826 -28.674017 0.000000 0.000000 0.000000 3.570471 -27.783655 8.755436 38.131912 -67.033132 -32.717668 41.249273 -20.991261 -7.139330 0.000000 0.000000 0.000000 -22.486603 34.238959 4.717368 -6.329869 37.466946 -2.710348 -16.598678 -5.481975 1.129556 0.000000 0.000000 0.000000 
-0.046972 0.961680 -0.054714 1.281435 10.692432 10.187503 3.355557 -0.963743 -11.779608 -1.176442 0.180230 -3.811875 -5.323742 0.626678 18.844251 0.000000 0.000000 0.000000 -6.575747 0.623935 -15.489011 3.699540 -0.472008 0.234661 -8.649179 -19.039732 22.732277 0.000000 0.000000 0.000000 2.745914 -3.457615 32.487524 6.523017 -0.774811 -23.234554 7.135866 5.572917 24.547683 -3.993170 5.285904 -27.774950 0.000000 0.000000 0.000000 2.992877 -27.297339 8.675881 38.500023 -67.878787 -33.465503 41.031870 -20.869613 -7.019370 0.000000 0.000000 0.000000 -21.543255 34.312092 5.024109 -4.708770 37.804768 -2.423701 -19.318889 -4.486437 1.206143 0.000000 0.000000 0.000000 
-0.049157 0.961447 -0.057075 1.315510 9.990508 10.283639 3.389328 -0.960062 -11.832300 -1.386264 0.190695 -3.644221 -4.474842 1.387534 18.007539 0.000000 0.000000 0.000000 -6.747571 0.632830 -15.788013 3.964665 -0.500321 0.095343 -8.051828 -18.264961 22.492545 0.000000 0.000000 0.000000 2.411247 -3.214359 32.090546 6.556346 -0.787096 -23.276771 7.059438 5.467357 24.473352 -4.523979 5.499094 -27.997671 0.000000 0.000000 0.000000 2.212880 -27.532433 8.852417 37.749390 -68.672803 -33.301448 40.461348 -21.302492 -7.006010 0.000000 0.000000 0.000000 -19.811924 34.509586 5.679005 -3.176065 38.521775 -2.213727 -21.346957 -3.550959 1.194457 0.000000 0.000000 0.000000 
-0.051484 0.961557 -0.059037 1.109694 9.135129 9.815983 3.876998 -0.892208 -11.368213 -1.827195 0.215422 -3.482142 -3.800196 2.068901 17.599909 0.000000 0.000000 0.000000 -6.416486 0.693245 -15.520866 3.936057 -0.488941 0.223348 -7.247396 -17.208083 21.601190 0.000000 0.000000 0.000000 1.982762 -2.981591 32.124566 6.841981 -0.821068 -23.943083 7.377101 5.523971 25.150400 -4.614795 5.527371 -28.816969 0.000000 0.000000 0.000000 1.289082 -27.337714 8.894085 35.316008 -69.666886 -32.168285 39.275457 -23.175842 -7.370637 0.000000 0.000000 0.000000 -17.268353 34.729184 6.546659 -1.600879 38.873344 -1.978830 -22.075875 -2.780978 1.096170 0.000000 0.000000 0.000000 
-0.053883 0.961588 -0.059876 1.086226 8.688879 9.808362 4.010712 -0.867848 -11.167308 -2.014620 0.226379 -3.354316 -3.189191 2.498269 16.612996 0.000000 0.000000 0.000000 -6.370638 0.712590 -15.527236 3.864722 -0.475663 0.091975 -6.518298 -16.153030 21.295102 0.000000 0.000000 0.000000 1.946434 -2.829863 31.365874 6.894726 -0.852882 -23.740126 7.053331 5.275881 24.997658 -4.682052 5.498394 -29.712630 0.000000 0.000000 0.000000 -0.161434 -27.608210 9.180759 27.798718 -70.328740 -27.080853 38.757809 -27.555972 -8.672544 0.000000 0.000000 0.000000 -14.520195 34.206959 7.409618 1.752886 39.601025 -1.300530 -22.598647 -0.925915 0.798786 0.000000 0.000000 0.000000 
-0.056308 0.961635 -0.059274 0.931074 8.034894 9.598634 4.386972 -0.818461 -10.788846 -2.657368 0.264705 -3.138371 -2.035323 3.823461 15.813343 0.000000 0.000000 0.000000 -6.181885 0.749544 -15.356175 4.101202 -0.499896 0.300218 -5.948655 -15.356275 20.317873 0.000000 0.000000 0.000000 1.872038 -2.651830 30.596231 7.204144 -0.930483 -23.766296 6.825339 4.992787 25.186531 -4.298483 5.240591 -29.815296 0.000000 0.000000 0.000000 -2.536074 -27.211290 9.377847 14.968340 -70.617783 -18.220743 38.695919 -34.164044 -10.833196 0.000000 0.000000 0.000000 -10.549332 33.397183 8.571339 6.161245 39.646602 -0.383034 -23.534729 0.942114 0.503810 0.000000 0.000000 0.000000 
-0.058840 0.961849 -0.057129 0.810616 7.421771 9.484973 4.483791 -0.758488 -10.017823 -3.368261 0.311308 -3.277605 -0.245988 5.935763 14.345147 0.000000 0.000000 0.000000 -5.986518 0.780606 -15.023354 4.045015 -0.486930 0.152633 -5.110737 -14.094748 19.682681 0.000000 0.000000 0.000000 1.680859 -2.404046 29.377647 7.313623 -0.951618 -23.943164 6.842608 4.136287 25.571853 -4.762076 5.320130 -30.735782 0.000000 0.000000 0.000000 -6.096494 -26.570430 9.712840 -0.865057 -69.157979 -7.211830 38.016662 -43.493973 -13.677834 0.000000 0.000000 0.000000 -6.272137 31.817029 9.525351 12.984568 39.262979 1.045951 -25.253817 5.534998 -0.336390 0.000000 0.000000 0.000000 
